<svg xmlns="http://www.w3.org/2000/svg" xmlns:xlink="http://www.w3.org/1999/xlink" width="2000" zoomAndPan="magnify" viewBox="0 0 1500 1499.999933" height="2000" preserveAspectRatio="xMidYMid meet" version="1.0"><defs><g/><clipPath id="3630a6a94d"><path d="M 233.171875 216.5 L 1266.671875 216.5 L 1266.671875 1283.75 L 233.171875 1283.75 Z M 233.171875 216.5 " clip-rule="nonzero"/></clipPath><clipPath id="b260703bd1"><path d="M 323 0.71875 L 1033.671875 0.71875 L 1033.671875 1005 L 323 1005 Z M 323 0.71875 " clip-rule="nonzero"/></clipPath><clipPath id="177f1a5689"><path d="M 0.324219 245 L 908 245 L 908 1067.519531 L 0.324219 1067.519531 Z M 0.324219 245 " clip-rule="nonzero"/></clipPath><clipPath id="73e386533d"><rect x="0" width="1034" y="0" height="1068"/></clipPath></defs><rect x="-150" width="1800" fill="#ffffff" y="-149.999993" height="1799.99992" fill-opacity="1"/><rect x="-150" width="1800" fill="#ffffff" y="-149.999993" height="1799.99992" fill-opacity="1"/><g clip-path="url(#3630a6a94d)"><g transform="matrix(1, 0, 0, 1, 233, 216)"><g clip-path="url(#73e386533d)"><g clip-path="url(#b260703bd1)"><path fill="#015864" d="M 960.363281 277.453125 C 896.34375 168 679.425781 23.082031 534.761719 0.792969 C 464.207031 193.160156 393.648438 385.519531 323.09375 577.882812 C 642.695312 629.328125 846.535156 807.972656 1033.824219 1004.789062 C 860.5 771.046875 653.878906 577.160156 412.355469 517.285156 L 559.785156 64.945312 C 716.527344 84.863281 871.828125 199.429688 960.363281 277.453125 Z M 960.363281 277.453125 " fill-opacity="1" fill-rule="evenodd"/></g><path fill="#015864" d="M 460.105469 153.578125 C 430.699219 141.332031 401.351562 131.183594 373.300781 123.230469 C 302.742188 315.59375 232.183594 507.957031 161.625 700.320312 C 481.234375 751.765625 769.378906 850.761719 963.5625 1034.953125 C 786.285156 805.964844 492.421875 699.597656 250.890625 639.71875 L 398.3125 187.378906 C 413.1875 190.835938 428.277344 194.699219 443.460938 198.953125 Z M 460.105469 153.578125 " fill-opacity="1" fill-rule="evenodd"/><g clip-path="url(#177f1a5689)"><path fill="#015864" d="M 299.632812 273.339844 C 270.066406 262.8125 240.425781 253.769531 211.832031 245.667969 C 141.273438 438.027344 70.71875 630.394531 0.160156 822.746094 C 316.53125 847.679688 694.019531 923.996094 907.828125 1067.195312 C 690.808594 868.617188 343.261719 800.707031 89.441406 762.15625 L 236.863281 309.816406 C 251.917969 313.316406 267.136719 316.808594 282.375 320.410156 Z M 299.632812 273.339844 " fill-opacity="1" fill-rule="evenodd"/></g></g></g></g><g fill="#ffffff" fill-opacity="1"><g transform="translate(14.864095, 1465.574854)"><g><path d="M 6 0 L 6 -48.3125 L 11.09375 -48.3125 L 11.09375 -20.09375 L 11.9375 -20.09375 L 24.75 -34.46875 L 30.09375 -34.46875 L 30.09375 -33.75 L 16.4375 -18.28125 L 31.40625 -0.78125 L 31.40625 0 L 25.71875 0 L 11.9375 -15.9375 L 11.09375 -15.9375 L 11.09375 0 Z M 6 0 "/></g></g></g><g fill="#ffffff" fill-opacity="1"><g transform="translate(46.924635, 1465.574854)"><g><path d="M 13.71875 0.65625 C 11.28125 0.65625 9.363281 -0.0351562 7.96875 -1.421875 C 6.570312 -2.804688 5.875 -4.875 5.875 -7.625 L 5.875 -48.3125 L 10.96875 -48.3125 L 10.96875 -7.96875 C 10.96875 -6.53125 11.242188 -5.492188 11.796875 -4.859375 C 12.347656 -4.222656 13.207031 -3.90625 14.375 -3.90625 C 15.082031 -3.90625 15.800781 -4.019531 16.53125 -4.25 L 16.96875 -4.125 L 17.5625 -0.125 C 17.1875 0.125 16.648438 0.316406 15.953125 0.453125 C 15.253906 0.585938 14.507812 0.65625 13.71875 0.65625 Z M 13.71875 0.65625 "/></g></g></g><g fill="#ffffff" fill-opacity="1"><g transform="translate(65.673489, 1465.574854)"><g><path d="M 8.5625 -41.125 C 7.476562 -41.125 6.597656 -41.460938 5.921875 -42.140625 C 5.242188 -42.816406 4.90625 -43.675781 4.90625 -44.71875 C 4.90625 -45.757812 5.242188 -46.617188 5.921875 -47.296875 C 6.597656 -47.972656 7.476562 -48.3125 8.5625 -48.3125 C 9.644531 -48.3125 10.523438 -47.972656 11.203125 -47.296875 C 11.878906 -46.617188 12.21875 -45.757812 12.21875 -44.71875 C 12.21875 -43.675781 11.878906 -42.816406 11.203125 -42.140625 C 10.523438 -41.460938 9.644531 -41.125 8.5625 -41.125 Z M 1.6875 14.625 C 0.601562 14.625 -0.351562 14.546875 -1.1875 14.390625 C -2.019531 14.234375 -2.820312 14.007812 -3.59375 13.71875 L -2.8125 9.78125 L -2.21875 9.59375 C -1.175781 9.988281 -0.113281 10.1875 0.96875 10.1875 C 2.59375 10.1875 3.835938 9.648438 4.703125 8.578125 C 5.566406 7.503906 6 5.96875 6 3.96875 L 6 -34.46875 L 11.09375 -34.46875 L 11.09375 3.78125 C 11.09375 7.238281 10.269531 9.910156 8.625 11.796875 C 6.976562 13.679688 4.664062 14.625 1.6875 14.625 Z M 1.6875 14.625 "/></g></g></g><g fill="#ffffff" fill-opacity="1"><g transform="translate(82.7662, 1465.574854)"><g><path d="M 17.875 0.65625 C 15.101562 0.65625 12.660156 -0.00390625 10.546875 -1.328125 C 8.429688 -2.648438 6.773438 -4.644531 5.578125 -7.3125 C 4.378906 -9.976562 3.78125 -13.28125 3.78125 -17.21875 C 3.78125 -21.15625 4.40625 -24.460938 5.65625 -27.140625 C 6.90625 -29.816406 8.628906 -31.816406 10.828125 -33.140625 C 13.023438 -34.460938 15.570312 -35.125 18.46875 -35.125 C 20.757812 -35.125 22.820312 -34.691406 24.65625 -33.828125 C 26.488281 -32.960938 28.0625 -31.539062 29.375 -29.5625 L 30.03125 -29.6875 L 30.03125 -48.3125 L 35.125 -48.3125 L 35.125 0 L 30.03125 0 L 30.03125 -5.03125 L 29.375 -5.15625 C 28.25 -3.445312 26.722656 -2.050781 24.796875 -0.96875 C 22.867188 0.113281 20.5625 0.65625 17.875 0.65625 Z M 19.46875 -3.90625 C 22.675781 -3.90625 25.238281 -5.003906 27.15625 -7.203125 C 29.070312 -9.398438 30.03125 -12.738281 30.03125 -17.21875 C 30.03125 -21.71875 29.070312 -25.066406 27.15625 -27.265625 C 25.238281 -29.460938 22.675781 -30.5625 19.46875 -30.5625 C 16.15625 -30.5625 13.601562 -29.488281 11.8125 -27.34375 C 10.019531 -25.195312 9.125 -21.820312 9.125 -17.21875 C 9.125 -8.34375 12.570312 -3.90625 19.46875 -3.90625 Z M 19.46875 -3.90625 "/></g></g></g><g fill="#ffffff" fill-opacity="1"><g transform="translate(123.91994, 1465.574854)"><g><path d="M 7.6875 0 L 7.6875 -30.3125 L 1.6875 -30.3125 L 1.6875 -34.5 L 7.6875 -34.5 C 7.3125 -36 7.125 -37.425781 7.125 -38.78125 C 7.125 -41.007812 7.597656 -42.890625 8.546875 -44.421875 C 9.492188 -45.953125 10.8125 -47.09375 12.5 -47.84375 C 14.1875 -48.59375 16.132812 -48.96875 18.34375 -48.96875 C 21.78125 -48.96875 24.414062 -48.226562 26.25 -46.75 L 24.28125 -43.15625 L 23.625 -43.03125 C 22.269531 -44.113281 20.507812 -44.65625 18.34375 -44.65625 C 16.320312 -44.65625 14.796875 -44.132812 13.765625 -43.09375 C 12.734375 -42.050781 12.21875 -40.570312 12.21875 -38.65625 C 12.21875 -37.46875 12.40625 -36.082031 12.78125 -34.5 L 23.75 -34.5 L 23.75 -30.3125 L 12.78125 -30.3125 L 12.78125 0 Z M 7.6875 0 "/></g></g></g><g fill="#ffffff" fill-opacity="1"><g transform="translate(148.480938, 1465.574854)"><g><path d="M 13.71875 0.65625 C 11.28125 0.65625 9.363281 -0.0351562 7.96875 -1.421875 C 6.570312 -2.804688 5.875 -4.875 5.875 -7.625 L 5.875 -48.3125 L 10.96875 -48.3125 L 10.96875 -7.96875 C 10.96875 -6.53125 11.242188 -5.492188 11.796875 -4.859375 C 12.347656 -4.222656 13.207031 -3.90625 14.375 -3.90625 C 15.082031 -3.90625 15.800781 -4.019531 16.53125 -4.25 L 16.96875 -4.125 L 17.5625 -0.125 C 17.1875 0.125 16.648438 0.316406 15.953125 0.453125 C 15.253906 0.585938 14.507812 0.65625 13.71875 0.65625 Z M 13.71875 0.65625 "/></g></g></g><g fill="#ffffff" fill-opacity="1"><g transform="translate(167.229792, 1465.574854)"><g><path d="M 6 0 L 6 -48.3125 L 11.09375 -48.3125 L 11.09375 -20.09375 L 11.9375 -20.09375 L 24.75 -34.46875 L 30.09375 -34.46875 L 30.09375 -33.75 L 16.4375 -18.28125 L 31.40625 -0.78125 L 31.40625 0 L 25.71875 0 L 11.9375 -15.9375 L 11.09375 -15.9375 L 11.09375 0 Z M 6 0 "/></g></g></g><g fill="#ffffff" fill-opacity="1"><g transform="translate(199.290333, 1465.574854)"><g><path d="M 14.21875 0.65625 C 10.820312 0.65625 8.171875 -0.226562 6.265625 -2 C 4.359375 -3.769531 3.40625 -6.300781 3.40625 -9.59375 C 3.40625 -11.632812 3.828125 -13.359375 4.671875 -14.765625 C 5.515625 -16.171875 6.820312 -17.316406 8.59375 -18.203125 C 10.363281 -19.085938 12.675781 -19.769531 15.53125 -20.25 C 18.03125 -20.664062 19.929688 -21.132812 21.234375 -21.65625 C 22.535156 -22.175781 23.410156 -22.757812 23.859375 -23.40625 C 24.304688 -24.050781 24.53125 -24.863281 24.53125 -25.84375 C 24.53125 -27.40625 23.992188 -28.601562 22.921875 -29.4375 C 21.847656 -30.269531 20.125 -30.6875 17.75 -30.6875 C 15.519531 -30.6875 13.609375 -30.253906 12.015625 -29.390625 C 10.421875 -28.523438 8.957031 -27.238281 7.625 -25.53125 L 7 -25.53125 L 4.5 -29.0625 C 5.957031 -30.914062 7.8125 -32.390625 10.0625 -33.484375 C 12.3125 -34.578125 14.875 -35.125 17.75 -35.125 C 21.8125 -35.125 24.804688 -34.234375 26.734375 -32.453125 C 28.660156 -30.671875 29.625 -28.207031 29.625 -25.0625 L 29.625 -6.78125 C 29.625 -4.863281 30.4375 -3.90625 32.0625 -3.90625 C 32.601562 -3.90625 33.125 -4 33.625 -4.1875 L 34.0625 -4.0625 L 34.65625 -0.53125 C 34.28125 -0.28125 33.785156 -0.0859375 33.171875 0.046875 C 32.554688 0.179688 31.925781 0.25 31.28125 0.25 C 29.382812 0.25 27.953125 -0.164062 26.984375 -1 C 26.015625 -1.832031 25.394531 -3.0625 25.125 -4.6875 L 24.46875 -4.75 C 23.488281 -2.9375 22.164062 -1.582031 20.5 -0.6875 C 18.832031 0.207031 16.738281 0.65625 14.21875 0.65625 Z M 15.34375 -3.40625 C 17.257812 -3.40625 18.921875 -3.847656 20.328125 -4.734375 C 21.734375 -5.617188 22.8125 -6.863281 23.5625 -8.46875 C 24.3125 -10.070312 24.6875 -11.925781 24.6875 -14.03125 L 24.6875 -18.40625 L 24.09375 -18.53125 C 23.320312 -17.988281 22.382812 -17.535156 21.28125 -17.171875 C 20.175781 -16.804688 18.632812 -16.476562 16.65625 -16.1875 C 14.65625 -15.914062 13.066406 -15.5 11.890625 -14.9375 C 10.710938 -14.375 9.875 -13.660156 9.375 -12.796875 C 8.875 -11.929688 8.625 -10.863281 8.625 -9.59375 C 8.625 -7.570312 9.21875 -6.035156 10.40625 -4.984375 C 11.59375 -3.929688 13.238281 -3.40625 15.34375 -3.40625 Z M 15.34375 -3.40625 "/></g></g></g><g fill="#ffffff" fill-opacity="1"><g transform="translate(234.944397, 1465.574854)"><g><path d="M 15.71875 0.65625 C 13.550781 0.65625 11.546875 0.367188 9.703125 -0.203125 C 7.859375 -0.773438 6.300781 -1.5625 5.03125 -2.5625 C 3.757812 -3.5625 2.863281 -4.6875 2.34375 -5.9375 L 5.34375 -9.0625 L 6 -9.0625 C 7.125 -7.351562 8.476562 -6.066406 10.0625 -5.203125 C 11.644531 -4.335938 13.53125 -3.90625 15.71875 -3.90625 C 18.257812 -3.90625 20.191406 -4.398438 21.515625 -5.390625 C 22.835938 -6.378906 23.5 -7.757812 23.5 -9.53125 C 23.5 -10.882812 23.097656 -12.003906 22.296875 -12.890625 C 21.492188 -13.773438 20.195312 -14.4375 18.40625 -14.875 L 12.59375 -16.3125 C 9.488281 -17.0625 7.222656 -18.25 5.796875 -19.875 C 4.367188 -21.5 3.65625 -23.507812 3.65625 -25.90625 C 3.65625 -27.78125 4.132812 -29.410156 5.09375 -30.796875 C 6.050781 -32.179688 7.429688 -33.25 9.234375 -34 C 11.035156 -34.75 13.175781 -35.125 15.65625 -35.125 C 18.820312 -35.125 21.316406 -34.679688 23.140625 -33.796875 C 24.960938 -32.910156 26.382812 -31.675781 27.40625 -30.09375 L 24.53125 -27.28125 L 23.90625 -27.28125 C 22.800781 -28.550781 21.597656 -29.46875 20.296875 -30.03125 C 18.992188 -30.59375 17.445312 -30.875 15.65625 -30.875 C 13.382812 -30.875 11.644531 -30.46875 10.4375 -29.65625 C 9.226562 -28.84375 8.625 -27.664062 8.625 -26.125 C 8.625 -24.726562 9.050781 -23.601562 9.90625 -22.75 C 10.757812 -21.894531 12.25 -21.207031 14.375 -20.6875 L 20.09375 -19.3125 C 23.09375 -18.601562 25.257812 -17.425781 26.59375 -15.78125 C 27.925781 -14.132812 28.59375 -12.070312 28.59375 -9.59375 C 28.59375 -7.570312 28.113281 -5.789062 27.15625 -4.25 C 26.195312 -2.707031 24.75 -1.503906 22.8125 -0.640625 C 20.875 0.222656 18.507812 0.65625 15.71875 0.65625 Z M 15.71875 0.65625 "/></g></g></g><g fill="#ffffff" fill-opacity="1"><g transform="translate(266.817472, 1465.574854)"><g><path d="M 8.5625 -41.125 C 7.476562 -41.125 6.597656 -41.460938 5.921875 -42.140625 C 5.242188 -42.816406 4.90625 -43.675781 4.90625 -44.71875 C 4.90625 -45.757812 5.242188 -46.617188 5.921875 -47.296875 C 6.597656 -47.972656 7.476562 -48.3125 8.5625 -48.3125 C 9.644531 -48.3125 10.523438 -47.972656 11.203125 -47.296875 C 11.878906 -46.617188 12.21875 -45.757812 12.21875 -44.71875 C 12.21875 -43.675781 11.878906 -42.816406 11.203125 -42.140625 C 10.523438 -41.460938 9.644531 -41.125 8.5625 -41.125 Z M 1.6875 14.625 C 0.601562 14.625 -0.351562 14.546875 -1.1875 14.390625 C -2.019531 14.234375 -2.820312 14.007812 -3.59375 13.71875 L -2.8125 9.78125 L -2.21875 9.59375 C -1.175781 9.988281 -0.113281 10.1875 0.96875 10.1875 C 2.59375 10.1875 3.835938 9.648438 4.703125 8.578125 C 5.566406 7.503906 6 5.96875 6 3.96875 L 6 -34.46875 L 11.09375 -34.46875 L 11.09375 3.78125 C 11.09375 7.238281 10.269531 9.910156 8.625 11.796875 C 6.976562 13.679688 4.664062 14.625 1.6875 14.625 Z M 1.6875 14.625 "/></g></g></g><g fill="#ffffff" fill-opacity="1"><g transform="translate(283.910183, 1465.574854)"><g><path d="M 17.875 0.65625 C 15.101562 0.65625 12.660156 -0.00390625 10.546875 -1.328125 C 8.429688 -2.648438 6.773438 -4.644531 5.578125 -7.3125 C 4.378906 -9.976562 3.78125 -13.28125 3.78125 -17.21875 C 3.78125 -21.15625 4.40625 -24.460938 5.65625 -27.140625 C 6.90625 -29.816406 8.628906 -31.816406 10.828125 -33.140625 C 13.023438 -34.460938 15.570312 -35.125 18.46875 -35.125 C 20.757812 -35.125 22.820312 -34.691406 24.65625 -33.828125 C 26.488281 -32.960938 28.0625 -31.539062 29.375 -29.5625 L 30.03125 -29.6875 L 30.03125 -48.3125 L 35.125 -48.3125 L 35.125 0 L 30.03125 0 L 30.03125 -5.03125 L 29.375 -5.15625 C 28.25 -3.445312 26.722656 -2.050781 24.796875 -0.96875 C 22.867188 0.113281 20.5625 0.65625 17.875 0.65625 Z M 19.46875 -3.90625 C 22.675781 -3.90625 25.238281 -5.003906 27.15625 -7.203125 C 29.070312 -9.398438 30.03125 -12.738281 30.03125 -17.21875 C 30.03125 -21.71875 29.070312 -25.066406 27.15625 -27.265625 C 25.238281 -29.460938 22.675781 -30.5625 19.46875 -30.5625 C 16.15625 -30.5625 13.601562 -29.488281 11.8125 -27.34375 C 10.019531 -25.195312 9.125 -21.820312 9.125 -17.21875 C 9.125 -8.34375 12.570312 -3.90625 19.46875 -3.90625 Z M 19.46875 -3.90625 "/></g></g></g><g fill="#ffffff" fill-opacity="1"><g transform="translate(325.063912, 1465.574854)"><g><path d="M 13.71875 0.65625 C 11.28125 0.65625 9.363281 -0.0351562 7.96875 -1.421875 C 6.570312 -2.804688 5.875 -4.875 5.875 -7.625 L 5.875 -48.3125 L 10.96875 -48.3125 L 10.96875 -7.96875 C 10.96875 -6.53125 11.242188 -5.492188 11.796875 -4.859375 C 12.347656 -4.222656 13.207031 -3.90625 14.375 -3.90625 C 15.082031 -3.90625 15.800781 -4.019531 16.53125 -4.25 L 16.96875 -4.125 L 17.5625 -0.125 C 17.1875 0.125 16.648438 0.316406 15.953125 0.453125 C 15.253906 0.585938 14.507812 0.65625 13.71875 0.65625 Z M 13.71875 0.65625 "/></g></g></g><g fill="#ffffff" fill-opacity="1"><g transform="translate(343.812766, 1465.574854)"><g><path d="M 1.96875 9.53125 C 3.78125 8.34375 5.3125 6.96875 6.5625 5.40625 C 7.8125 3.84375 8.457031 2.125 8.5 0.25 C 7.269531 0.25 6.304688 -0.0820312 5.609375 -0.75 C 4.910156 -1.414062 4.5625 -2.300781 4.5625 -3.40625 C 4.5625 -4.488281 4.898438 -5.378906 5.578125 -6.078125 C 6.253906 -6.773438 7.15625 -7.125 8.28125 -7.125 C 9.507812 -7.125 10.503906 -6.695312 11.265625 -5.84375 C 12.023438 -4.988281 12.40625 -3.644531 12.40625 -1.8125 C 12.40625 1.4375 11.707031 4.171875 10.3125 6.390625 C 8.914062 8.609375 6.851562 10.632812 4.125 12.46875 Z M 8.40625 -27.46875 C 7.21875 -27.46875 6.28125 -27.800781 5.59375 -28.46875 C 4.90625 -29.132812 4.5625 -30.019531 4.5625 -31.125 C 4.5625 -32.207031 4.90625 -33.097656 5.59375 -33.796875 C 6.28125 -34.492188 7.21875 -34.84375 8.40625 -34.84375 C 9.613281 -34.84375 10.5625 -34.507812 11.25 -33.84375 C 11.9375 -33.175781 12.28125 -32.289062 12.28125 -31.1875 C 12.28125 -30.082031 11.929688 -29.1875 11.234375 -28.5 C 10.535156 -27.8125 9.59375 -27.46875 8.40625 -27.46875 Z M 8.40625 -27.46875 "/></g></g></g><g fill="#ffffff" fill-opacity="1"><g transform="translate(360.780485, 1465.574854)"><g><path d="M 7.6875 0 L 7.6875 -30.3125 L 1.6875 -30.3125 L 1.6875 -34.5 L 7.6875 -34.5 C 7.3125 -36 7.125 -37.425781 7.125 -38.78125 C 7.125 -41.007812 7.597656 -42.890625 8.546875 -44.421875 C 9.492188 -45.953125 10.8125 -47.09375 12.5 -47.84375 C 14.1875 -48.59375 16.132812 -48.96875 18.34375 -48.96875 C 21.78125 -48.96875 24.414062 -48.226562 26.25 -46.75 L 24.28125 -43.15625 L 23.625 -43.03125 C 22.269531 -44.113281 20.507812 -44.65625 18.34375 -44.65625 C 16.320312 -44.65625 14.796875 -44.132812 13.765625 -43.09375 C 12.734375 -42.050781 12.21875 -40.570312 12.21875 -38.65625 C 12.21875 -37.46875 12.40625 -36.082031 12.78125 -34.5 L 23.75 -34.5 L 23.75 -30.3125 L 12.78125 -30.3125 L 12.78125 0 Z M 7.6875 0 "/></g></g></g><g fill="#ffffff" fill-opacity="1"><g transform="translate(385.341494, 1465.574854)"><g><path d="M 6 0 L 6 -48.3125 L 11.09375 -48.3125 L 11.09375 -20.09375 L 11.9375 -20.09375 L 24.75 -34.46875 L 30.09375 -34.46875 L 30.09375 -33.75 L 16.4375 -18.28125 L 31.40625 -0.78125 L 31.40625 0 L 25.71875 0 L 11.9375 -15.9375 L 11.09375 -15.9375 L 11.09375 0 Z M 6 0 "/></g></g></g><g fill="#ffffff" fill-opacity="1"><g transform="translate(417.402023, 1465.574854)"><g><path d="M 8.5625 -41.125 C 7.476562 -41.125 6.597656 -41.460938 5.921875 -42.140625 C 5.242188 -42.816406 4.90625 -43.675781 4.90625 -44.71875 C 4.90625 -45.757812 5.242188 -46.617188 5.921875 -47.296875 C 6.597656 -47.972656 7.476562 -48.3125 8.5625 -48.3125 C 9.644531 -48.3125 10.523438 -47.972656 11.203125 -47.296875 C 11.878906 -46.617188 12.21875 -45.757812 12.21875 -44.71875 C 12.21875 -43.675781 11.878906 -42.816406 11.203125 -42.140625 C 10.523438 -41.460938 9.644531 -41.125 8.5625 -41.125 Z M 1.6875 14.625 C 0.601562 14.625 -0.351562 14.546875 -1.1875 14.390625 C -2.019531 14.234375 -2.820312 14.007812 -3.59375 13.71875 L -2.8125 9.78125 L -2.21875 9.59375 C -1.175781 9.988281 -0.113281 10.1875 0.96875 10.1875 C 2.59375 10.1875 3.835938 9.648438 4.703125 8.578125 C 5.566406 7.503906 6 5.96875 6 3.96875 L 6 -34.46875 L 11.09375 -34.46875 L 11.09375 3.78125 C 11.09375 7.238281 10.269531 9.910156 8.625 11.796875 C 6.976562 13.679688 4.664062 14.625 1.6875 14.625 Z M 1.6875 14.625 "/></g></g></g><g fill="#ffffff" fill-opacity="1"><g transform="translate(434.494734, 1465.574854)"><g><path d="M 14.21875 0.65625 C 10.820312 0.65625 8.171875 -0.226562 6.265625 -2 C 4.359375 -3.769531 3.40625 -6.300781 3.40625 -9.59375 C 3.40625 -11.632812 3.828125 -13.359375 4.671875 -14.765625 C 5.515625 -16.171875 6.820312 -17.316406 8.59375 -18.203125 C 10.363281 -19.085938 12.675781 -19.769531 15.53125 -20.25 C 18.03125 -20.664062 19.929688 -21.132812 21.234375 -21.65625 C 22.535156 -22.175781 23.410156 -22.757812 23.859375 -23.40625 C 24.304688 -24.050781 24.53125 -24.863281 24.53125 -25.84375 C 24.53125 -27.40625 23.992188 -28.601562 22.921875 -29.4375 C 21.847656 -30.269531 20.125 -30.6875 17.75 -30.6875 C 15.519531 -30.6875 13.609375 -30.253906 12.015625 -29.390625 C 10.421875 -28.523438 8.957031 -27.238281 7.625 -25.53125 L 7 -25.53125 L 4.5 -29.0625 C 5.957031 -30.914062 7.8125 -32.390625 10.0625 -33.484375 C 12.3125 -34.578125 14.875 -35.125 17.75 -35.125 C 21.8125 -35.125 24.804688 -34.234375 26.734375 -32.453125 C 28.660156 -30.671875 29.625 -28.207031 29.625 -25.0625 L 29.625 -6.78125 C 29.625 -4.863281 30.4375 -3.90625 32.0625 -3.90625 C 32.601562 -3.90625 33.125 -4 33.625 -4.1875 L 34.0625 -4.0625 L 34.65625 -0.53125 C 34.28125 -0.28125 33.785156 -0.0859375 33.171875 0.046875 C 32.554688 0.179688 31.925781 0.25 31.28125 0.25 C 29.382812 0.25 27.953125 -0.164062 26.984375 -1 C 26.015625 -1.832031 25.394531 -3.0625 25.125 -4.6875 L 24.46875 -4.75 C 23.488281 -2.9375 22.164062 -1.582031 20.5 -0.6875 C 18.832031 0.207031 16.738281 0.65625 14.21875 0.65625 Z M 15.34375 -3.40625 C 17.257812 -3.40625 18.921875 -3.847656 20.328125 -4.734375 C 21.734375 -5.617188 22.8125 -6.863281 23.5625 -8.46875 C 24.3125 -10.070312 24.6875 -11.925781 24.6875 -14.03125 L 24.6875 -18.40625 L 24.09375 -18.53125 C 23.320312 -17.988281 22.382812 -17.535156 21.28125 -17.171875 C 20.175781 -16.804688 18.632812 -16.476562 16.65625 -16.1875 C 14.65625 -15.914062 13.066406 -15.5 11.890625 -14.9375 C 10.710938 -14.375 9.875 -13.660156 9.375 -12.796875 C 8.875 -11.929688 8.625 -10.863281 8.625 -9.59375 C 8.625 -7.570312 9.21875 -6.035156 10.40625 -4.984375 C 11.59375 -3.929688 13.238281 -3.40625 15.34375 -3.40625 Z M 15.34375 -3.40625 "/></g></g></g><g fill="#ffffff" fill-opacity="1"><g transform="translate(470.148798, 1465.574854)"><g><path d="M 1.96875 9.53125 C 3.78125 8.34375 5.3125 6.96875 6.5625 5.40625 C 7.8125 3.84375 8.457031 2.125 8.5 0.25 C 7.269531 0.25 6.304688 -0.0820312 5.609375 -0.75 C 4.910156 -1.414062 4.5625 -2.300781 4.5625 -3.40625 C 4.5625 -4.488281 4.898438 -5.378906 5.578125 -6.078125 C 6.253906 -6.773438 7.15625 -7.125 8.28125 -7.125 C 9.507812 -7.125 10.503906 -6.695312 11.265625 -5.84375 C 12.023438 -4.988281 12.40625 -3.644531 12.40625 -1.8125 C 12.40625 1.4375 11.707031 4.171875 10.3125 6.390625 C 8.914062 8.609375 6.851562 10.632812 4.125 12.46875 Z M 8.40625 -27.46875 C 7.21875 -27.46875 6.28125 -27.800781 5.59375 -28.46875 C 4.90625 -29.132812 4.5625 -30.019531 4.5625 -31.125 C 4.5625 -32.207031 4.90625 -33.097656 5.59375 -33.796875 C 6.28125 -34.492188 7.21875 -34.84375 8.40625 -34.84375 C 9.613281 -34.84375 10.5625 -34.507812 11.25 -33.84375 C 11.9375 -33.175781 12.28125 -32.289062 12.28125 -31.1875 C 12.28125 -30.082031 11.929688 -29.1875 11.234375 -28.5 C 10.535156 -27.8125 9.59375 -27.46875 8.40625 -27.46875 Z M 8.40625 -27.46875 "/></g></g></g><g fill="#ffffff" fill-opacity="1"><g transform="translate(487.11654, 1465.574854)"><g><path d="M 13.71875 0.65625 C 11.28125 0.65625 9.363281 -0.0351562 7.96875 -1.421875 C 6.570312 -2.804688 5.875 -4.875 5.875 -7.625 L 5.875 -48.3125 L 10.96875 -48.3125 L 10.96875 -7.96875 C 10.96875 -6.53125 11.242188 -5.492188 11.796875 -4.859375 C 12.347656 -4.222656 13.207031 -3.90625 14.375 -3.90625 C 15.082031 -3.90625 15.800781 -4.019531 16.53125 -4.25 L 16.96875 -4.125 L 17.5625 -0.125 C 17.1875 0.125 16.648438 0.316406 15.953125 0.453125 C 15.253906 0.585938 14.507812 0.65625 13.71875 0.65625 Z M 13.71875 0.65625 "/></g></g></g><g fill="#ffffff" fill-opacity="1"><g transform="translate(505.865394, 1465.574854)"><g><path d="M 6 0 L 6 -48.3125 L 11.09375 -48.3125 L 11.09375 -20.09375 L 11.9375 -20.09375 L 24.75 -34.46875 L 30.09375 -34.46875 L 30.09375 -33.75 L 16.4375 -18.28125 L 31.40625 -0.78125 L 31.40625 0 L 25.71875 0 L 11.9375 -15.9375 L 11.09375 -15.9375 L 11.09375 0 Z M 6 0 "/></g></g></g><g fill="#ffffff" fill-opacity="1"><g transform="translate(537.925922, 1465.574854)"><g><path d="M 15.71875 0.65625 C 13.550781 0.65625 11.546875 0.367188 9.703125 -0.203125 C 7.859375 -0.773438 6.300781 -1.5625 5.03125 -2.5625 C 3.757812 -3.5625 2.863281 -4.6875 2.34375 -5.9375 L 5.34375 -9.0625 L 6 -9.0625 C 7.125 -7.351562 8.476562 -6.066406 10.0625 -5.203125 C 11.644531 -4.335938 13.53125 -3.90625 15.71875 -3.90625 C 18.257812 -3.90625 20.191406 -4.398438 21.515625 -5.390625 C 22.835938 -6.378906 23.5 -7.757812 23.5 -9.53125 C 23.5 -10.882812 23.097656 -12.003906 22.296875 -12.890625 C 21.492188 -13.773438 20.195312 -14.4375 18.40625 -14.875 L 12.59375 -16.3125 C 9.488281 -17.0625 7.222656 -18.25 5.796875 -19.875 C 4.367188 -21.5 3.65625 -23.507812 3.65625 -25.90625 C 3.65625 -27.78125 4.132812 -29.410156 5.09375 -30.796875 C 6.050781 -32.179688 7.429688 -33.25 9.234375 -34 C 11.035156 -34.75 13.175781 -35.125 15.65625 -35.125 C 18.820312 -35.125 21.316406 -34.679688 23.140625 -33.796875 C 24.960938 -32.910156 26.382812 -31.675781 27.40625 -30.09375 L 24.53125 -27.28125 L 23.90625 -27.28125 C 22.800781 -28.550781 21.597656 -29.46875 20.296875 -30.03125 C 18.992188 -30.59375 17.445312 -30.875 15.65625 -30.875 C 13.382812 -30.875 11.644531 -30.46875 10.4375 -29.65625 C 9.226562 -28.84375 8.625 -27.664062 8.625 -26.125 C 8.625 -24.726562 9.050781 -23.601562 9.90625 -22.75 C 10.757812 -21.894531 12.25 -21.207031 14.375 -20.6875 L 20.09375 -19.3125 C 23.09375 -18.601562 25.257812 -17.425781 26.59375 -15.78125 C 27.925781 -14.132812 28.59375 -12.070312 28.59375 -9.59375 C 28.59375 -7.570312 28.113281 -5.789062 27.15625 -4.25 C 26.195312 -2.707031 24.75 -1.503906 22.8125 -0.640625 C 20.875 0.222656 18.507812 0.65625 15.71875 0.65625 Z M 15.71875 0.65625 "/></g></g></g><g fill="#ffffff" fill-opacity="1"><g transform="translate(569.798951, 1465.574854)"><g><path d="M 17.875 0.65625 C 15.101562 0.65625 12.660156 -0.00390625 10.546875 -1.328125 C 8.429688 -2.648438 6.773438 -4.644531 5.578125 -7.3125 C 4.378906 -9.976562 3.78125 -13.28125 3.78125 -17.21875 C 3.78125 -21.15625 4.40625 -24.460938 5.65625 -27.140625 C 6.90625 -29.816406 8.628906 -31.816406 10.828125 -33.140625 C 13.023438 -34.460938 15.570312 -35.125 18.46875 -35.125 C 20.757812 -35.125 22.820312 -34.691406 24.65625 -33.828125 C 26.488281 -32.960938 28.0625 -31.539062 29.375 -29.5625 L 30.03125 -29.6875 L 30.03125 -48.3125 L 35.125 -48.3125 L 35.125 0 L 30.03125 0 L 30.03125 -5.03125 L 29.375 -5.15625 C 28.25 -3.445312 26.722656 -2.050781 24.796875 -0.96875 C 22.867188 0.113281 20.5625 0.65625 17.875 0.65625 Z M 19.46875 -3.90625 C 22.675781 -3.90625 25.238281 -5.003906 27.15625 -7.203125 C 29.070312 -9.398438 30.03125 -12.738281 30.03125 -17.21875 C 30.03125 -21.71875 29.070312 -25.066406 27.15625 -27.265625 C 25.238281 -29.460938 22.675781 -30.5625 19.46875 -30.5625 C 16.15625 -30.5625 13.601562 -29.488281 11.8125 -27.34375 C 10.019531 -25.195312 9.125 -21.820312 9.125 -17.21875 C 9.125 -8.34375 12.570312 -3.90625 19.46875 -3.90625 Z M 19.46875 -3.90625 "/></g></g></g><g fill="#ffffff" fill-opacity="1"><g transform="translate(610.952725, 1465.574854)"><g><path d="M 7.6875 0 L 7.6875 -30.3125 L 1.6875 -30.3125 L 1.6875 -34.5 L 7.6875 -34.5 C 7.3125 -36 7.125 -37.425781 7.125 -38.78125 C 7.125 -41.007812 7.597656 -42.890625 8.546875 -44.421875 C 9.492188 -45.953125 10.8125 -47.09375 12.5 -47.84375 C 14.1875 -48.59375 16.132812 -48.96875 18.34375 -48.96875 C 21.78125 -48.96875 24.414062 -48.226562 26.25 -46.75 L 24.28125 -43.15625 L 23.625 -43.03125 C 22.269531 -44.113281 20.507812 -44.65625 18.34375 -44.65625 C 16.320312 -44.65625 14.796875 -44.132812 13.765625 -43.09375 C 12.734375 -42.050781 12.21875 -40.570312 12.21875 -38.65625 C 12.21875 -37.46875 12.40625 -36.082031 12.78125 -34.5 L 23.75 -34.5 L 23.75 -30.3125 L 12.78125 -30.3125 L 12.78125 0 Z M 7.6875 0 "/></g></g></g></svg>